Dark.Tide.2012.HDRiP.AC3-5.1.XviD-SiC

IMDB Link: 
http://www.imdb.com/title/tt1507563/

Description:
A professional diver tutor Brady returns to deep waters after nine years following an almost fatal encounter with a great white shark, bringing a happy couple Kate and Jeff. However, before they know it they discover that the nightmare from the deep is still lurking in the deep, more carnivorous and hungry than ever.

MediaInfo:
General
Format                                   : AVI
Format/Info                              : Audio Video Interleave
File size                                : 1.36 GiB
Duration                                 : 1h 53mn
Overall bit rate                         : 1 707 Kbps

Video
ID                                       : 0
Format                                   : MPEG-4 Visual
Format profile                           : Advanced Simple@L5
Format settings, BVOP                    : 2
Format settings, QPel                    : No
Format settings, GMC                     : No warppoints
Format settings, Matrix                  : Default (H.263)
Muxing mode                              : Packed bitstream
Codec ID                                 : XVID
Codec ID/Hint                            : XviD
Duration                                 : 1h 53mn
Bit rate                                 : 1 315 Kbps
Width                                    : 720 pixels
Height                                   : 304 pixels
Display aspect ratio                     : 2.35:1
Frame rate                               : 23.976 fps
Color space                              : YUV
Chroma subsampling                       : 4:2:0
Bit depth                                : 8 bits
Scan type                                : Progressive
Compression mode                         : Lossy
Bits/(Pixel*Frame)                       : 0.251
Stream size                              : 1.05 GiB (77%)
Writing library                          : XviD 1.1.2 (UTC 2006-11-01)

Audio
ID                                       : 1
Format                                   : AC-3
Format/Info                              : Audio Coding 3
Mode extension                           : CM (complete main)
Codec ID                                 : 2000
Duration                                 : 1h 53mn
Bit rate mode                            : Constant
Bit rate                                 : 384 Kbps
Channel(s)                               : 6 channels
Channel positions                        : Front: L C R, Side: L R, LFE
Sampling rate                            : 48.0 KHz
Bit depth                                : 16 bits
Compression mode                         : Lossy
Stream size                              : 313 MiB (22%)
Alignment                                : Aligned on interleaves
Interleave, duration                     : 64 ms (1.53 video frames)
Interleave, preload duration             : 192 ms
Title                                    : darktide


Poster:

 
http://i.imgur.com/7qqIg.jpg


Screenshots:

 
http://i.imgur.com/3r9SJ.jpg


ENJOY!